<?xml version="1.0" standalone="no"?>
<!DOCTYPE svg PUBLIC "-//W3C//DTD SVG 20010904//EN"
 "http://www.w3.org/TR/2001/REC-SVG-20010904/DTD/svg10.dtd">
<svg version="1.0" xmlns="http://www.w3.org/2000/svg"
 width="512.000000pt" height="512.000000pt" viewBox="0 0 512.000000 512.000000"
 preserveAspectRatio="xMidYMid meet">

<g transform="translate(0.000000,512.000000) scale(0.100000,-0.100000)"
fill="#fff" stroke="none">
<path d="M3237 3994 c-3 -3 -50 -10 -104 -14 -83 -7 -136 -21 -338 -88 -225
-74 -263 -91 -595 -257 -195 -97 -384 -194 -420 -216 -36 -21 -83 -47 -105
-56 -22 -9 -98 -46 -169 -81 -322 -158 -478 -197 -688 -172 -190 23 -222 20
-303 -23 -39 -20 -92 -55 -119 -77 -35 -29 -57 -40 -82 -40 -37 0 -43 -10 -19
-30 21 -17 19 -27 -9 -61 -26 -30 -42 -95 -31 -128 3 -11 21 -25 39 -31 35
-11 75 -49 96 -90 9 -17 13 -94 15 -273 1 -204 4 -250 16 -258 8 -5 46 -18 84
-30 39 -11 80 -25 93 -30 13 -5 51 -9 85 -9 34 0 98 -6 143 -14 45 -8 137 -20
205 -26 168 -15 169 -15 169 -48 0 -15 10 -59 21 -99 21 -69 21 -77 7 -175
-14 -101 -13 -103 6 -106 11 -2 36 1 56 7 l37 11 -8 47 c-4 27 -8 92 -8 146
-1 87 2 102 24 137 21 34 51 60 69 60 14 0 15 -66 2 -124 -9 -37 -16 -74 -16
-81 0 -15 60 -37 72 -26 3 3 21 44 38 90 l33 84 -26 19 c-17 12 -29 33 -33 56
-9 49 -21 62 -57 62 -22 0 -42 -12 -78 -49 l-49 -48 0 68 c0 76 -6 82 -60 54
-23 -12 -30 -22 -30 -45 0 -36 -7 -37 -54 -5 -62 42 -144 61 -406 96 -41 5
-78 11 -82 12 -4 1 -10 61 -13 132 -5 140 -22 238 -54 310 -15 33 -33 53 -70
77 -28 17 -51 34 -51 38 0 4 22 38 49 76 55 78 149 172 201 200 38 20 63 21
415 13 l170 -4 111 38 c68 24 149 61 210 98 54 33 229 125 388 205 160 79 297
150 305 157 17 14 71 39 71 33 0 -2 -27 -44 -59 -93 -60 -91 -139 -241 -181
-344 l-22 -56 27 -56 c14 -32 31 -55 36 -51 6 3 7 -5 3 -20 -5 -20 -2 -26 10
-26 21 0 28 -16 71 -160 20 -69 41 -129 46 -134 5 -6 9 -23 9 -38 0 -16 6 -39
14 -51 8 -12 28 -74 46 -137 37 -135 48 -156 92 -165 18 -4 44 -17 58 -30 14
-13 42 -28 64 -34 l38 -10 -7 32 c-3 18 -9 50 -12 72 -3 22 -12 44 -20 48 -7
5 -11 12 -8 17 3 5 -3 44 -14 86 -21 80 -20 94 5 94 11 0 9 5 -5 19 -12 12
-30 69 -51 156 -20 83 -37 138 -46 142 -8 3 -14 13 -14 23 0 9 -9 28 -19 42
-11 13 -23 38 -26 54 -4 16 -14 46 -22 66 -15 35 -15 41 4 91 39 106 145 278
207 337 32 30 104 98 160 151 98 92 184 159 205 159 6 0 25 13 43 29 45 39
138 90 195 107 34 10 102 14 233 14 272 1 282 -4 499 -208 93 -88 133 -133
139 -155 5 -18 19 -37 31 -44 29 -14 41 -31 41 -59 0 -15 6 -21 18 -20 11 1
26 -17 46 -57 l29 -58 -26 -25 c-65 -60 -107 -193 -107 -339 0 -53 -5 -105
-11 -117 -12 -23 -25 -352 -15 -391 3 -15 12 -27 18 -27 7 0 39 -16 71 -36 32
-20 64 -33 72 -30 8 3 15 1 15 -4 0 -6 4 -10 9 -10 12 0 19 64 30 261 9 164
30 303 56 366 12 27 20 32 67 41 61 11 98 11 98 0 0 -15 19 -8 30 11 8 16 5
25 -14 48 -20 24 -46 90 -51 128 0 6 -10 30 -22 55 -12 25 -27 65 -34 90 -17
61 -106 195 -168 253 -28 26 -51 52 -51 57 0 6 -7 10 -15 10 -8 0 -15 6 -15
13 0 6 -15 22 -33 34 -53 36 -133 107 -132 118 0 12 -147 94 -245 136 -41 17
-98 42 -127 55 -28 13 -80 28 -115 34 -35 6 -85 14 -113 19 -57 11 -179 14
-188 5z"/>
<path d="M3114 3696 c-54 -17 -153 -70 -197 -107 -20 -16 -48 -55 -64 -87 -24
-50 -28 -67 -26 -141 1 -46 6 -87 11 -90 6 -3 13 -28 16 -56 4 -27 13 -99 22
-160 8 -60 18 -180 24 -265 16 -268 39 -503 55 -555 8 -27 19 -69 25 -92 11
-46 32 -63 80 -66 20 -1 31 -8 34 -23 9 -32 47 -39 68 -11 9 12 24 30 33 40
12 13 15 28 11 50 -4 18 -11 106 -16 197 -11 209 -27 397 -39 480 -39 249 -55
335 -76 407 -22 72 -24 89 -16 148 13 90 53 140 148 182 95 43 151 50 187 22
35 -28 75 -107 77 -155 2 -22 8 -48 15 -59 31 -50 59 -582 48 -905 -7 -209 5
-329 35 -362 9 -9 22 -24 29 -33 16 -19 116 -21 154 -3 25 12 27 17 30 98 2
51 -1 95 -8 110 -9 18 -9 60 -3 155 5 72 7 204 4 295 -3 91 -7 264 -9 385 -3
230 -7 256 -52 320 -12 17 -29 45 -38 62 -28 55 -77 104 -130 130 -28 13 -67
33 -87 44 -91 49 -260 71 -345 45z"/>
<path d="M2554 3225 c-7 -19 -14 -54 -14 -78 0 -65 38 -265 61 -316 10 -24 19
-50 19 -59 0 -35 117 -140 158 -142 15 0 17 158 2 222 -75 322 -93 372 -144
393 -52 22 -65 19 -82 -20z"/>
<path d="M4257 2187 c-24 -75 -22 -157 4 -207 21 -40 21 -45 9 -208 -7 -92
-13 -180 -14 -197 -1 -28 2 -31 46 -39 27 -5 51 -6 55 -2 14 14 6 141 -11 174
-28 53 -21 81 32 131 l47 46 7 -85 c4 -47 10 -133 14 -192 7 -123 16 -133 71
-75 28 29 31 39 38 125 6 89 6 93 -19 123 -30 35 -30 33 -11 164 8 55 11 103
6 108 -12 12 -96 -50 -142 -104 -22 -27 -45 -46 -51 -43 -6 4 -7 58 -3 149 7
140 7 142 -16 163 -34 32 -44 27 -62 -31z"/>
<path d="M1606 2157 c-39 -59 -60 -254 -32 -293 14 -18 16 -17 31 21 11 26 15
53 12 80 -7 45 22 125 45 125 7 0 21 -26 32 -58 21 -68 20 -74 -50 -164 -51
-66 -104 -162 -104 -189 0 -31 37 -42 114 -36 87 8 165 30 200 58 21 16 26 29
26 63 0 141 -110 349 -212 402 -37 19 -45 18 -62 -9z m164 -316 c5 -11 10 -34
10 -51 0 -24 -6 -33 -27 -41 -35 -13 -74 -8 -86 12 -8 13 -2 26 23 58 36 45
63 52 80 22z"/>
<path d="M3476 2139 c-37 -89 -67 -368 -51 -474 9 -62 59 -115 107 -115 46 0
119 77 147 155 11 33 26 68 31 77 14 25 13 28 -15 28 -44 0 -85 -27 -85 -56 0
-14 -11 -36 -25 -49 -42 -43 -73 -29 -86 36 -11 60 -11 226 1 329 11 95 0 126
-24 69z"/>
<path d="M1961 2055 c-38 -91 -51 -154 -51 -252 0 -82 16 -132 51 -157 62 -43
78 7 34 102 -14 30 -25 66 -25 81 0 31 35 140 49 154 20 20 51 -189 51 -342 0
-88 12 -108 42 -72 23 30 57 138 64 210 8 81 13 101 26 101 7 0 9 -22 4 -72
-12 -137 -36 -220 -94 -330 -6 -12 75 -31 102 -24 17 4 28 16 32 33 4 15 3
117 -3 228 -8 171 -13 207 -32 250 -23 51 -48 85 -63 85 -5 0 -8 -70 -6 -160
3 -135 1 -162 -13 -175 -15 -15 -16 -6 -22 102 -3 65 -13 143 -22 173 -19 62
-64 140 -82 140 -6 0 -25 -34 -42 -75z"/>
<path d="M2386 2108 c-2 -7 -16 -74 -30 -148 -60 -315 -81 -552 -53 -605 23
-45 85 -102 91 -84 9 28 36 127 36 133 0 3 -11 6 -24 6 -29 0 -36 16 -36 80 0
30 6 54 15 64 9 8 70 54 135 101 66 47 125 95 130 105 8 15 6 28 -6 52 -26 50
-253 311 -258 296z m121 -250 c24 -23 43 -50 43 -61 0 -34 -110 -63 -138 -35
-15 15 -16 92 -2 119 17 30 51 22 97 -23z"/>
<path d="M4655 2077 c-42 -102 -58 -338 -29 -437 31 -106 110 -143 173 -80 33
34 111 181 111 211 0 11 -6 19 -13 19 -17 0 -36 -22 -69 -80 -15 -25 -39 -58
-56 -73 l-29 -28 -26 39 c-39 56 -36 87 11 111 21 11 44 27 51 35 8 9 20 16
28 16 19 0 28 27 13 45 -7 8 -20 15 -29 15 -28 0 -98 -51 -114 -84 l-16 -31 0
32 c-1 17 3 34 8 37 5 3 12 37 16 76 4 45 14 79 26 94 26 33 41 75 34 97 -5
14 -16 19 -41 19 -30 0 -37 -5 -49 -33z"/>
<path d="M4082 2077 c-5 -7 -12 -21 -16 -33 -4 -13 -30 -32 -68 -50 -42 -19
-68 -39 -80 -59 -20 -36 -38 -158 -38 -258 0 -81 12 -107 59 -127 41 -17 115
9 174 60 34 31 47 36 56 27 10 -9 17 -7 32 12 10 13 19 33 19 45 0 28 -36 86
-54 86 -7 0 -36 -18 -62 -41 -64 -53 -123 -84 -136 -71 -6 6 -9 45 -7 90 5 97
21 120 117 163 l63 29 -3 61 c-3 53 -6 63 -25 70 -14 5 -25 3 -31 -4z"/>
<path d="M3808 2053 c-32 -37 -40 -64 -33 -113 4 -33 2 -67 -9 -102 -36 -126
-30 -208 19 -260 33 -36 41 -35 54 3 16 46 14 107 -6 157 -14 38 -15 54 -4
120 6 42 25 106 41 141 17 35 30 65 30 67 0 13 -79 1 -92 -13z"/>
<path d="M3220 2012 c-75 -78 -122 -194 -154 -379 l-13 -73 57 0 c79 0 85 9
71 111 -6 45 -11 106 -11 135 0 46 4 55 31 79 29 24 101 65 114 65 14 0 2 -61
-34 -173 -21 -67 -42 -134 -45 -148 -14 -62 63 -94 103 -43 29 37 46 128 31
164 -9 22 -9 49 -2 107 13 95 3 149 -33 181 -39 33 -63 28 -115 -26z"/>
<path d="M2676 1956 c-8 -33 11 -174 34 -250 25 -80 74 -154 120 -178 108 -59
218 41 208 190 -3 46 -3 47 -38 47 l-35 0 3 -60 c4 -68 0 -74 -75 -115 -49
-27 -62 -23 -39 12 8 13 30 91 48 172 l32 149 -29 23 c-34 27 -66 34 -155 34
-63 0 -68 -2 -74 -24z m129 -70 c25 -38 30 -90 10 -109 -22 -22 -31 -21 -49 5
-28 40 -17 128 16 128 4 0 15 -11 23 -24z"/>
</g>
</svg>
